<svg width="50" height="51" viewBox="0 0 50 51" fill="none" xmlns="http://www.w3.org/2000/svg">
    <path d="M24.9998 35.58C25.4728 35.58 25.9123 35.3592 26.7915 34.9175L33.854 31.3675C36.979 29.7967 38.5415 29.0112 38.5415 27.7675V12.1425M24.9998 35.58C24.5269 35.58 24.0873 35.3592 23.2082 34.9175L16.1457 31.3675C13.0207 29.7967 11.4582 29.0112 11.4582 27.7675V12.1425M24.9998 35.58V19.955M38.5415 12.1425C38.5415 10.8987 36.979 10.1133 33.854 8.54249L26.7915 4.99249C25.9123 4.55083 25.4728 4.32999 24.9998 4.32999C24.5269 4.32999 24.0873 4.55083 23.2082 4.99249L16.1457 8.54249C13.0207 10.1133 11.4582 10.8987 11.4582 12.1425M38.5415 12.1425C38.5415 13.3862 36.979 14.1717 33.854 15.7425L26.7915 19.2925C25.9123 19.7342 25.4728 19.955 24.9998 19.955M11.4582 12.1425C11.4582 13.3862 13.0207 14.1717 16.1457 15.7425L23.2082 19.2925C24.0873 19.7342 24.5269 19.955 24.9998 19.955M20.8332 43.3925C20.8332 41.955 21.9998 40.7883 23.4373 40.7883H26.5623C27.9998 40.7883 29.1665 41.955 29.1665 43.3925M20.8332 43.3925C20.8332 44.83 21.9998 45.9967 23.4373 45.9967H26.5623C27.9998 45.9967 29.1665 44.83 29.1665 43.3925M20.8332 43.3925H10.4165M29.1665 43.3925H39.5832" stroke="currentColor" stroke-width="1.5" stroke-linecap="round" stroke-linejoin="round" />
</svg> 