<svg width="50" height="51" viewBox="0 0 50 51" fill="none" xmlns="http://www.w3.org/2000/svg">
    <path d="M6.25016 36.1008V43.9133H14.0627L37.1043 20.8508L29.2918 13.0383L6.25016 36.1008ZM47.1043 38.4133L38.2502 47.2675L27.4168 36.4342L31.1043 32.7467L33.1877 34.83L38.3335 29.6633L41.2918 32.6217L38.2502 35.58L40.4585 37.6633L43.4168 34.7467L47.1043 38.4133ZM13.771 22.7258L2.896 11.9133L11.7502 3.05917L15.4168 6.74667L10.271 11.9133L12.5002 14.1217L17.6252 8.955L20.5835 11.9133L17.6252 14.8508L19.7085 16.9342L13.771 22.7258ZM43.146 14.7467C43.9585 13.9342 43.9585 12.6633 43.146 11.8092L38.271 7.0175C37.5002 6.205 36.146 6.205 35.3335 7.0175L31.5002 10.83L39.3127 18.6425L43.146 14.7467Z" fill="currentColor" />
</svg> 