<svg width="50" height="51" viewBox="0 0 50 51" fill="none" xmlns="http://www.w3.org/2000/svg">
    <g clip-path="url(#clip0_173_96)">
        <path d="M39.4126 36.58C39.1501 42.2612 34.4459 46.3633 28.2376 46.3633H15.2917V33.6071L10.7396 31.6133V50.1633H28.2001C37.2292 50.1633 43.9271 43.9925 43.9271 35.8279V35.4883C42.573 35.9779 41.0688 36.3529 39.4126 36.58ZM42.2355 16.7862C38.773 9.14874 36.9292 2.22374 32.1501 0.607075C29.3667 -0.334591 27.973 0.417492 26.6563 1.05916C26.5613 1.10434 26.4789 1.17234 26.4165 1.25711C26.3542 1.34187 26.3137 1.44075 26.2989 1.54493C26.284 1.64912 26.2952 1.75535 26.3314 1.85417C26.3676 1.95298 26.4277 2.0413 26.5063 2.11124C27.2584 2.75083 28.2001 3.54249 29.2896 4.55708C25.2271 2.18624 14.0126 -1.34917 12.8855 2.94041C11.8688 6.81541 10.1376 12.4967 10.1376 12.4967C10.1376 12.4967 1.25631 11.5946 0.241722 15.3571C-0.772861 19.1196 7.16464 26.3446 20.298 30.2196C33.4292 34.0967 43.6271 33.08 48.0292 28.3008C52.4313 23.5217 48.1792 16.8987 42.2355 16.7862ZM39.6376 16.8612C38.623 17.8404 35.3105 20.3612 28.048 19.8342C20.2605 19.2696 13.8626 14.68 12.2063 13.4008C12.0766 13.3115 11.9804 13.1814 11.9328 13.0313C11.8853 12.8811 11.8891 12.7194 11.9438 12.5717C12.0563 12.1967 12.2063 11.5946 12.4709 10.8029C12.6209 10.3154 13.1855 10.0883 13.6001 10.3529C16.873 12.2342 22.1417 14.98 27.748 15.3571C32.7521 15.6967 35.7626 14.2279 37.7188 13.1362C37.8192 13.0838 37.9294 13.0529 38.0425 13.0456C38.1555 13.0382 38.2688 13.0546 38.3751 13.0936C38.4815 13.1327 38.5785 13.1935 38.6599 13.2722C38.7413 13.351 38.8054 13.4459 38.848 13.5508L39.8271 15.9592C39.9021 16.2967 39.8646 16.6362 39.6376 16.8612Z" fill="currentColor" />
    </g>
    <defs>
        <clipPath id="clip0_173_96">
            <rect width="50" height="50" fill="white" transform="translate(0 0.16333)" />
        </clipPath>
    </defs>
</svg> 