<svg width="50" height="51" viewBox="0 0 50 51" fill="none" xmlns="http://www.w3.org/2000/svg">
    <path d="M22.4771 8.86437H27.5146M32.8125 46.5175V19.4612L25 3.80917L17.1875 19.4612V46.5175H32.8125Z" stroke="currentColor" stroke-linecap="round" stroke-linejoin="round" />
    <path d="M32.8136 19.8154C32.3738 19.6012 31.8912 19.4898 31.4021 19.4894C30.4684 19.5204 29.585 19.9206 28.946 20.6021C28.307 21.2837 27.9646 22.191 27.9938 23.1248M27.9938 23.1248C27.9938 21.1165 26.6532 19.4894 25.0011 19.4894C23.349 19.4894 22.0084 21.1165 22.0084 23.1248M27.9938 23.1248V46.5175M22.0084 23.1248C22.0376 22.191 21.6951 21.2837 21.0561 20.6021C20.4171 19.9206 19.5338 19.5204 18.6 19.4894C18.1424 19.4894 17.6901 19.5867 17.2729 19.7748M22.0084 23.1248V46.5175" stroke="currentColor" stroke-linecap="round" stroke-linejoin="round" />
</svg> 