<svg width="50" height="51" viewBox="0 0 50 51" fill="none" xmlns="http://www.w3.org/2000/svg">
    <path d="M10.4167 27.2467V45.9967H6.25V27.2467H10.4167ZM47.9167 27.2467V31.4133H43.75V45.9967H39.5833V31.4133H35.4167V27.2467H47.9167ZM25 23.08C27.919 23.0959 30.7758 23.9248 33.25 25.4737L36.2646 22.4529C32.9573 20.1544 29.0275 18.9196 25 18.9133C21.0264 18.9207 17.15 20.1419 13.8896 22.4133L16.9083 25.4404C19.3321 23.9132 22.1352 23.0954 25 23.08Z" fill="currentColor" />
    <path d="M25 14.7467C30.1297 14.7582 35.1203 16.4159 39.2375 19.4758L42.2104 16.4967C37.2894 12.6688 31.2345 10.5872 25 10.58C18.8194 10.5874 12.8179 12.6563 7.9458 16.4592L10.9166 19.4383C14.9851 16.4019 19.9234 14.7568 25 14.7467Z" fill="currentColor" />
    <path d="M25 6.41333C32.3398 6.4143 39.4594 8.92052 45.1813 13.5175L48.1542 10.5404C41.6579 5.18493 33.5026 2.25318 25.0834 2.24671C16.6643 2.24025 8.50446 5.15949 2 10.505L4.97292 13.4821C10.6468 8.91021 17.7134 6.41598 25 6.41333ZM25 27.2467C23.1458 27.2467 21.3332 27.7965 19.7915 28.8266C18.2498 29.8568 17.0482 31.321 16.3386 33.034C15.6291 34.7471 15.4434 36.6321 15.8051 38.4506C16.1669 40.2692 17.0598 41.9397 18.3709 43.2508C19.682 44.5619 21.3525 45.4548 23.171 45.8165C24.9896 46.1783 26.8746 45.9926 28.5877 45.283C30.3007 44.5735 31.7649 43.3719 32.795 41.8301C33.8252 40.2884 34.375 38.4759 34.375 36.6217C34.375 34.1353 33.3873 31.7507 31.6291 29.9925C29.871 28.2344 27.4864 27.2467 25 27.2467ZM25 41.83C23.9699 41.83 22.9629 41.5245 22.1064 40.9522C21.2499 40.3799 20.5823 39.5665 20.1881 38.6148C19.7939 37.6631 19.6908 36.6159 19.8917 35.6056C20.0927 34.5953 20.5888 33.6672 21.3172 32.9388C22.0456 32.2104 22.9736 31.7144 23.9839 31.5134C24.9942 31.3124 26.0414 31.4156 26.9931 31.8098C27.9448 32.204 28.7583 32.8716 29.3306 33.7281C29.9029 34.5846 30.2083 35.5916 30.2083 36.6217C30.2083 38.003 29.6596 39.3278 28.6828 40.3045C27.7061 41.2813 26.3813 41.83 25 41.83Z" fill="currentColor" />
</svg> 